<svg xmlns="http://www.w3.org/2000/svg" id="Graphic_Element" viewBox="0 0 512 512"><path d="M428.22,97.29H83.78c-27.86,0-50.52,22.66-50.52,50.52v216.38c0,27.86,22.66,50.52,50.52,50.52h344.44c27.86,0,50.52-22.66,50.52-50.52v-216.38c0-27.86-22.66-50.52-50.52-50.52ZM452.89,147.81v216.38c0,1.39-.12,2.76-.35,4.09l-128.09-112.28,128.09-112.28c.22,1.33.35,2.7.35,4.09ZM428.22,123.14c2.55,0,5.01.39,7.32,1.11l-165.98,145.5c-7.73,6.78-19.39,6.78-27.12,0L76.46,124.25c2.31-.72,4.77-1.11,7.32-1.11h344.44ZM59.45,368.28c-.22-1.33-.35-2.7-.35-4.09v-216.38c0-1.39.12-2.76.35-4.09l128.09,112.28-128.09,112.28ZM83.78,388.86c-2.55,0-5.01-.39-7.32-1.11l130.69-114.57,18.25,16c8.72,7.65,19.66,11.47,30.6,11.47s21.88-3.82,30.6-11.47l18.25-16,130.69,114.56c-2.31.72-4.77,1.11-7.32,1.11H83.78Z" fill="#ffffff"/></svg>